<?xml version="1.0" encoding="UTF-8"?>
<svg width="69px" height="94px" viewBox="0 0 69 94" version="1.1" xmlns="http://www.w3.org/2000/svg" xmlns:xlink="http://www.w3.org/1999/xlink">
    <!-- Generator: Sketch 63.1 (92452) - https://sketch.com -->
    <title>第一徽章</title>
    <desc>Created with Sketch.</desc>
    <g id="页面-1" stroke="none" stroke-width="1" fill="none" fill-rule="evenodd">
        <g id="homepage3" transform="translate(-156.000000, -2706.000000)" fill-rule="nonzero">
            <g id="第一徽章-2" transform="translate(156.000000, 2706.000000)">
                <g id="第一徽章">
                    <polygon id="路径" fill="#EE4D63" points="4.03614783 0 4.03614783 42.6166255 34.0417986 71.3519157 63.9085037 42.6166255 63.9085037 0"></polygon>
                    <path d="M15.9457777,0 L27.8554075,0 L27.8554075,51.608396 L15.9457777,51.608396 L15.9457777,0 Z M39.7650374,0 L51.6746672,0 L51.6746672,51.608396 L39.7650374,51.608396 L39.7650374,0 Z" id="形状" fill="#EF314F"></path>
                    <polygon id="路径" fill="#FFA7B0" opacity="0.245" points="21.7252563 0 63.9051954 0 63.9051954 25.9828425 20.0149012 57.9171916 4.03614783 42.6166255 4.03614783 14.5562142"></polygon>
                    <g id="编组-7" transform="translate(4.036148, 33.697067)">
                        <path d="M1.10134124e-13,29.7757736 C-0.000606996297,40.4134306 5.67416681,50.2432907 14.8865468,55.5622944 C24.0989269,60.8812981 35.4492223,60.8812981 44.6616024,55.5622944 C53.8739824,50.2432907 59.5487562,40.4134306 59.5481492,29.7757736 C59.5487562,19.1381166 53.8739824,9.30825651 44.6616024,3.98925279 C35.4492223,-1.32975093 24.0989269,-1.32975093 14.8865468,3.98925279 C5.67416681,9.30825651 -0.000606996297,19.1381166 1.10134124e-13,29.7757736 L1.10134124e-13,29.7757736 Z" id="路径" fill="#FEDA57"></path>
                        <path d="M8.28380917,50.3827414 C11.3439224,51.1833332 14.552906,51.610095 17.8644448,51.610095 C38.362241,51.610095 55.039031,35.2608198 55.5650397,14.8887362 C63.111897,27.9337078 59.7213535,44.5605945 47.6692384,53.6089569 C35.6171233,62.6573192 18.7045887,61.2733675 8.28380917,50.3860496 L8.28380917,50.3827414 Z" id="路径" fill="#FFC22E"></path>
                        <path d="M7.93975325,29.7757736 C7.93975325,37.5764254 12.1013513,44.7845249 18.8569139,48.6848509 C25.6124764,52.5851768 33.9356728,52.5851768 40.6912354,48.6848509 C47.446798,44.7845249 51.608396,37.5764254 51.608396,29.7757736 C51.608396,17.7170109 41.8328374,7.94145219 29.7740746,7.94145219 C17.7153119,7.94145219 7.93975325,17.7170109 7.93975325,29.7757736 L7.93975325,29.7757736 Z" id="路径" fill="#FFCA32"></path>
                        <path d="M16.4485221,47.0712027 C9.74007863,41.8967061 6.63059227,33.3085713 8.4712692,25.0387141 C10.3119461,16.768857 16.7704663,10.3103369 25.0403234,8.46965995 C33.3101805,6.62898301 41.8983153,9.73846938 47.0728119,16.4469128 C38.3801797,9.74193029 26.0607747,10.5337897 18.2980868,18.2964776 C10.535399,26.0591654 9.74353955,38.3785704 16.4485221,47.0712027 L16.4485221,47.0712027 Z" id="路径" fill="#FBC233"></path>
                        <path d="M17.2061069,47.6336019 L17.8644448,47.6402183 C25.8752719,47.6403966 33.5482113,44.4125018 39.1498108,38.685772 C44.7514104,32.9590422 47.8090312,25.2166745 47.6319029,17.2078058 C53.7550039,25.890128 52.7398046,37.7195656 45.2269038,45.2316496 C37.714003,52.7437336 25.8844551,53.7576468 17.2027987,47.6336019 L17.2061069,47.6336019 Z" id="路径" fill="#FFB51B"></path>
                        <path d="M47.6385194,47.6402183 C45.4460171,47.6402183 43.6686428,49.4175927 43.6686428,51.610095 C43.6686428,50.5572182 43.2503891,49.5474646 42.5058928,48.8029683 C41.7613966,48.058472 40.7516429,47.6402183 39.6987662,47.6402183 C40.7516429,47.6402183 41.7613966,47.2219647 42.5058928,46.4774684 C43.2503891,45.7329721 43.6686428,44.7232185 43.6686428,43.6703417 C43.6686428,45.862844 45.4460171,47.6402183 47.6385194,47.6402183 L47.6385194,47.6402183 Z" id="路径" fill="#FFFFFF"></path>
                        <path d="M39.1529081,50.9219829 C38.6264697,50.9219829 38.1215929,51.1311097 37.7493447,51.5033579 C37.3770966,51.8756061 37.1679698,52.3804829 37.1679698,52.9069213 C37.1679698,52.3804829 36.958843,51.8756061 36.5865949,51.5033579 C36.2143467,51.1311098 35.7094699,50.9219829 35.1830315,50.9219829 C35.7094699,50.9219829 36.2143467,50.7128561 36.5865948,50.340608 C36.958843,49.9683598 37.1679698,49.463483 37.1679698,48.9370447 C37.1679698,49.4634831 37.3770966,49.9683599 37.7493448,50.340608 C38.1215929,50.7128562 38.6264698,50.921983 39.1529081,50.9219829 L39.1529081,50.9219829 Z" id="路径" fill="#FFFFFF"></path>
                    </g>
                    <path d="M19.9156543,39.653581 C18.3363392,39.653581 16.8217087,40.2809615 15.7049642,41.3977059 C14.5882198,42.5144504 13.9608393,44.0290809 13.9608393,45.608396 C13.9608394,44.0290809 13.3334589,42.5144504 12.2167145,41.397706 C11.0999701,40.2809615 9.58533958,39.653581 8.00602446,39.653581 C9.58533956,39.653581 11.09997,39.0262006 12.2167144,37.9094561 C13.3334589,36.7927117 13.9608393,35.2780813 13.9608393,33.6987662 C13.9608393,35.2780813 14.5882198,36.7927118 15.7049643,37.9094562 C16.8217087,39.0262006 18.3363392,39.6535811 19.9156543,39.653581 L19.9156543,39.653581 Z M27.8554075,33.6987662 C25.6629052,33.6987662 23.885531,35.4761405 23.885531,37.6686428 C23.885531,35.4761405 22.1081567,33.6987662 19.9156543,33.6987662 C22.1081567,33.6987662 23.885531,31.9213918 23.885531,29.7288895 C23.885531,31.9213918 25.6629052,33.6987661 27.8554075,33.6987662 Z" id="形状" fill="#FFFFFF" opacity="0.636"></path>
                    <path d="M2.05120957,0 L65.5692354,0 C66.8925276,0 67.5541736,0.661646088 67.5541736,1.98493826 L67.5541736,5.95481489 C67.5541736,7.27810707 66.8925276,7.93975325 65.5692354,7.93975325 L2.05120957,7.93975325 C0.727917393,7.93975325 0.0662712078,7.27810713 0.0662712078,5.95481489 L0.0662712078,1.98493826 C0.0662712078,0.661646088 0.727917328,0 2.05120957,0 Z" id="路径" fill="#FABF0A"></path>
                    <path d="M67.5541736,1.98493826 C67.5541736,2.51137664 67.3450469,3.01625348 66.9727987,3.38850163 C66.6005506,3.76074979 66.0956738,3.96987663 65.5692354,3.96987663 L2.05120957,3.96987663 C0.954958409,3.96987663 0.0662712563,3.08118947 0.0662712563,1.98493831 C0.0662712563,0.888687153 0.954958409,0 2.05120957,0 L65.5692354,0 C66.6654865,0 67.5541736,0.888687132 67.5541736,1.98493826 Z" id="路径" fill="#FDCE00"></path>
                    <path d="M8.97202774,4.96234576 C9.52015331,4.96234576 9.96449688,4.51800219 9.96449688,3.96987663 C9.96449688,3.42175106 9.52015331,2.97740749 8.97202774,2.97740749 C8.42390218,2.97740749 7.97955861,3.42175106 7.97955861,3.96987663 C7.97955861,4.51800219 8.42390218,4.96234576 8.97202774,4.96234576 Z M21.9005926,4.95242108 C22.4487182,4.95242108 22.8930617,4.50807751 22.8930617,3.95995194 C22.8930617,3.41182638 22.4487182,2.96748281 21.9005926,2.96748281 C21.352467,2.96748281 20.9081235,3.41182639 20.9081235,3.95995194 C20.9081235,4.5080775 21.352467,4.95242108 21.9005926,4.95242108 L21.9005926,4.95242108 Z M33.7771401,4.96234576 C34.3252657,4.96234576 34.7696093,4.51800219 34.7696093,3.96987663 C34.7696093,3.42175106 34.3252657,2.97740749 33.7771401,2.97740749 C33.2290146,2.97740749 32.784671,3.42175106 32.784671,3.96987663 C32.784671,4.51800219 33.2290146,4.96234576 33.7771401,4.96234576 Z M45.6603042,4.96234576 C46.2084297,4.96234576 46.6527733,4.51800219 46.6527733,3.96987663 C46.6527733,3.42175106 46.2084297,2.97740749 45.6603042,2.97740749 C45.1121786,2.97740749 44.667835,3.42175106 44.667835,3.96987663 C44.667835,4.51800219 45.1121786,4.96234576 45.6603042,4.96234576 Z M57.6294821,4.98219512 C58.1776077,4.98219512 58.6219513,4.53785155 58.6219513,3.98972599 C58.6219513,3.44160042 58.1776077,2.99725685 57.6294821,2.99725685 C57.0813566,2.99725685 56.637013,3.44160042 56.637013,3.98972599 C56.637013,4.53785155 57.0813566,4.98219512 57.6294821,4.98219512 L57.6294821,4.98219512 Z" id="形状" fill="#FFFFFF"></path>
                    <polygon id="路径" fill="#A21E33" opacity="0.165" points="4.03614783 7.93975325 63.9085037 7.93975325 63.9085037 11.9096299 4.03614783 11.9096299"></polygon>
                </g>
            </g>
        </g>
    </g>
</svg>