<?xml version="1.0" encoding="UTF-8"?>
<svg width="26px" height="30px" viewBox="0 0 26 30" version="1.1" xmlns="http://www.w3.org/2000/svg" xmlns:xlink="http://www.w3.org/1999/xlink">
    <!-- Generator: Sketch 63.1 (92452) - https://sketch.com -->
    <title>形状</title>
    <desc>Created with Sketch.</desc>
    <g id="页面-1" stroke="none" stroke-width="1" fill="none" fill-rule="evenodd">
        <g id="homepage3" transform="translate(-1004.000000, -1852.000000)" fill="#3D027E" fill-rule="nonzero">
            <g id="编组-2备份-3" transform="translate(969.000000, 1789.000000)">
                <g id="编组-6">
                    <g id="保障-(1)" transform="translate(35.000000, 63.000000)">
                        <path d="M18.2720624,2.85330557 C14.8260629,1.61268772 12.491061,-1.43884904e-13 12.491061,-1.43884904e-13 C12.491061,-1.43884904e-13 8.93205461,1.87186914 5.92990925,2.96495022 C3.99988925,3.6520086 2.01656177,4.17894402 1.9186596e-05,4.54041319 L1.9186596e-05,17.7165548 C-0.0178780347,25.5733768 12.491061,30.0214536 12.491061,30.0214536 C12.491061,30.0214536 25,25.5733768 25,17.7537204 L25,4.55832964 C25,4.55832964 21.7194241,4.07591814 18.2734543,2.85327596 L18.2720624,2.85330557 Z M20.292801,11.5082239 C20.2376598,11.8969368 20.0336788,12.2112002 19.7552186,12.4537978 L19.7731351,12.4717143 L13.5290305,18.8468015 L12.7681292,19.6255895 C12.4226837,19.9810405 11.948114,20.1815937 11.4524548,20.1815937 C10.9567956,20.1815937 10.4822259,19.9810405 10.1367803,19.6255895 L9.37727097,18.8468015 L5.94921755,15.362215 C5.54188747,15.0018768 5.36419132,14.4476557 5.48605513,13.9176457 C5.65974835,13.1298206 6.439087,12.6318616 7.22697132,12.805286 C7.54265619,12.8797355 7.81969484,13.027213 8.02506769,13.2505023 L11.1002707,16.4001549 C11.2913125,16.5860975 11.5956806,16.5860975 11.7867224,16.4001549 L17.6793389,10.3214146 C18.0322189,9.89550656 18.6249128,9.69152557 19.1997199,9.84036536 C19.9399209,10.0622924 20.4030538,10.7666606 20.2927713,11.5082239 L20.292801,11.5082239 Z" id="形状"></path>
                    </g>
                </g>
            </g>
        </g>
    </g>
</svg>