<?xml version="1.0" encoding="UTF-8"?>
<svg width="28px" height="27px" viewBox="0 0 28 27" version="1.1" xmlns="http://www.w3.org/2000/svg" xmlns:xlink="http://www.w3.org/1999/xlink">
    <!-- Generator: Sketch 63.1 (92452) - https://sketch.com -->
    <title>编组 14</title>
    <desc>Created with Sketch.</desc>
    <g id="页面-1" stroke="none" stroke-width="1" fill="none" fill-rule="evenodd">
        <g id="homepage3" transform="translate(-579.000000, -1855.000000)" fill="#3D027E" fill-rule="nonzero">
            <g id="编组-2备份-2" transform="translate(545.000000, 1789.000000)">
                <g id="编组-6">
                    <g id="奖杯" transform="translate(34.000000, 66.000000)">
                        <g id="编组-14" transform="translate(0.027904, 0.000000)">
                            <path d="M4.32789559,3.64969544 L0.100207558,3.64075742 C0.100207558,3.64075742 -1.64568757,16.8332892 9.43746921,19.0737553 C9.13655555,18.6208951 8.66581932,17.786679 8.06697133,16.5651483 C4.00314718,14.4498146 3.07061275,8.96782309 3.19276582,6.05700477 C3.71117154,6.05998411 4.4321726,6.07190148 4.4321726,6.07190148 L4.32789559,3.64969544 Z M22.534662,3.64969544 L26.7683087,3.64075742 C26.7683087,3.64075742 28.5171832,16.8332892 17.4191297,19.0737553 C17.7200434,18.6208951 18.1907796,17.786679 18.7926069,16.5651483 C22.8594104,14.4498146 23.7949242,8.96782309 23.6727711,6.05700477 C23.1543654,6.05998411 22.430385,6.07190148 22.430385,6.07190148 L22.534662,3.64969544 Z" id="形状"></path>
                            <path d="M15.3514655,22.4612685 C15.3514655,22.4612685 15.2769819,21.7462262 15.2769819,21.2993247 C16.6176864,20.8524232 19.1948183,16.9524629 19.5463808,16.3387182 C23.4880518,11.2053099 22.5614761,-3.71258579e-13 22.5614761,-3.71258579e-13 L4.37556508,-3.71258579e-13 C4.37556508,-3.71258579e-13 3.44600999,11.2053099 7.38768108,16.3387182 C7.73924358,16.9524629 10.3163755,20.8524232 11.6570799,21.2993247 C11.6570799,21.7432468 11.5825963,22.4612685 11.5825963,22.4612685 L7.97759103,22.4612685 L5.66264135,26.6740599 L13.4685206,26.6949153 L21.2743998,26.6740599 L18.9594501,22.4582892 L15.3514655,22.4582892 L15.3514655,22.4612685 Z M10.8735126,13.3623543 L11.4366085,10.242982 L9.18720438,8.00847458 L12.3304115,7.57944915 L13.7604962,4.74907309 L15.1369528,7.60626324 L18.2712219,8.08891684 L15.9801069,10.2817135 L16.4895746,13.4130032 L13.6949507,11.9114142 L10.8735126,13.3623543 L10.8735126,13.3623543 Z" id="形状"></path>
                        </g>
                    </g>
                </g>
            </g>
        </g>
    </g>
</svg>