<?xml version="1.0" encoding="UTF-8"?>
<svg width="31px" height="30px" viewBox="0 0 31 30" version="1.1" xmlns="http://www.w3.org/2000/svg" xmlns:xlink="http://www.w3.org/1999/xlink">
    <!-- Generator: Sketch 63.1 (92452) - https://sketch.com -->
    <title>编组 13</title>
    <desc>Created with Sketch.</desc>
    <g id="页面-1" stroke="none" stroke-width="1" fill="none" fill-rule="evenodd">
        <g id="homepage3" transform="translate(-154.000000, -1852.000000)" fill="#3D027E" fill-rule="nonzero">
            <g id="编组-2备份" transform="translate(121.000000, 1789.000000)">
                <g id="钱-(1)" transform="translate(33.000000, 63.000000)">
                    <g id="编组-13" transform="translate(0.000000, 0.030561)">
                        <path d="M14.7606383,3.03002749 C21.2433511,3.03002749 26.5292553,8.31593174 26.5292553,14.8983785 C26.5292553,21.3810913 21.2433511,26.6669956 14.7606383,26.6669956 C8.27792553,26.6669956 2.99202128,21.3810913 2.99202128,14.8983785 C2.89228723,8.31593174 8.17819149,3.03002749 14.7606383,3.03002749 Z M20.1462766,12.1058254 L20.1462766,11.307953 C20.1462766,10.1111445 19.8470745,9.21353812 19.1489362,8.51539983 C18.5505319,7.81726153 17.5531915,7.41832536 16.2566489,7.21885727 L16.2566489,5.92231472 L14.3617021,5.92231472 L14.3617021,7.21885727 C12.9654255,7.31859132 11.9680851,7.81726153 11.2699468,8.51539983 C10.5718085,9.21353812 10.2726064,10.1111445 10.2726064,11.307953 C10.2726064,12.1058254 10.4720745,12.9036977 10.7712766,13.502102 C11.0704787,14.2002403 11.4694149,14.6989105 11.9680851,15.0978466 C12.3670213,15.4967828 13.2646277,15.995453 14.5611702,16.7933254 C15.3590426,17.2919956 15.7579787,17.6909317 15.8577128,18.0898679 C15.9574468,18.4888041 16.0571809,19.0872083 16.0571809,20.0845488 C16.0571809,20.4834849 15.9574468,20.682953 15.8577128,20.8824211 C15.7579787,21.0818892 15.5585106,21.1816232 15.2593085,21.1816232 C14.9601064,21.1816232 14.7606383,21.0818892 14.6609043,20.7826871 C14.5611702,20.4834849 14.5611702,19.8850807 14.5611702,18.7880062 L14.5611702,17.7906658 L10.4720745,17.7906658 L10.4720745,18.5885381 C10.4720745,20.3837509 10.8710106,21.6802934 11.668883,22.3784317 C12.4667553,23.07657 13.4640957,23.4755062 14.5611702,23.6749743 L14.5611702,25.270719 L16.456117,25.270719 L16.456117,23.7747083 C17.8523936,23.5752403 18.9494681,23.07657 19.6476064,22.2786977 C20.3457447,21.4808254 20.7446809,20.2840168 20.7446809,18.8877403 C20.7446809,17.9901339 20.6449468,17.1922615 20.3457447,16.5938573 C20.0465426,15.995453 19.7473404,15.4967828 19.3484043,15.1975807 C18.9494681,14.8983785 18.2513298,14.3997083 17.2539894,13.8013041 C16.0571809,13.1031658 15.2593085,12.6044956 15.0598404,12.3052934 C14.7606383,12.1058254 14.6609043,11.6071551 14.6609043,11.0087509 C14.6609043,10.6098147 14.7606383,10.3106126 14.8603723,10.1111445 C14.9601064,9.91167642 15.1595745,9.81194238 15.4587766,9.81194238 C15.7579787,9.81194238 15.9574468,9.91167642 16.0571809,10.1111445 C16.1569149,10.3106126 16.2566489,10.8092828 16.2566489,11.5074211 L16.2566489,12.2055594 L20.1462766,12.1058254 L20.1462766,12.1058254 Z" id="形状"></path>
                        <path d="M29.7207447,18.189602 C30.1196809,15.7959849 30.0199468,13.3026339 29.4215426,10.8092828 L29.3218085,10.6098147 L27.6263298,11.0087509 C28.025266,12.5047615 28.4242021,15.1975807 27.9255319,17.5911977 L29.7207447,18.189602 L29.7207447,18.189602 Z M28.224734,8.31593174 C27.2273936,5.82258068 25.3324468,3.62843174 23.4375,2.43162323 L22.5398936,3.82789983 C24.3351064,5.02470834 25.731383,6.62045302 26.8284574,9.01407004 C27.0279255,8.81460195 28.025266,8.41566578 28.224734,8.31593174 L28.224734,8.31593174 Z M21.6422872,1.53401685 C19.4481383,0.436942379 16.456117,-0.161461876 13.7632979,0.0380062088 L14.0625,1.83321897 C16.356383,1.63375089 18.75,2.1324211 20.7446809,3.12976153 L21.6422872,1.53401685 Z M11.4694149,0.337208336 C8.77659574,1.03534663 6.38297872,2.33188919 4.38829787,4.32657004 L5.68484043,5.82258068 C7.48005319,4.12710195 9.57446809,2.93029344 11.9680851,2.33188919 L11.4694149,0.337208336 Z M2.89228723,5.82258068 C1.19680851,8.01672961 0.299202128,10.6098147 -3.19744231e-14,13.2028998 L1.99468085,13.4023679 C2.19414894,11.1084849 3.09175532,8.914336 4.48803191,7.01938919 L2.89228723,5.82258068 Z M-3.19744231e-14,14.8983785 C0.0997340426,17.4914637 0.698138298,19.9848147 1.79521277,22.1789637 L3.39095745,21.2813573 C2.49335106,19.3864105 1.79521277,17.0925275 1.79521277,14.7986445 L-3.19744231e-14,14.7986445 L-3.19744231e-14,14.8983785 Z M2.99202128,24.4728466 C4.78723404,26.5672615 7.18085106,28.2627403 9.77393617,29.2600807 L10.4720745,27.4648679 C8.17819149,26.5672615 6.18351064,25.270719 4.58776596,23.3757722 L2.99202128,24.4728466 Z M12.7659574,29.6590168 C16.356383,30.057953 19.6476064,29.5592828 22.4401596,27.8638041 L21.4428191,26.2680594 C18.9494681,27.76407 16.0571809,28.2627403 13.0651596,27.76407 L12.7659574,29.6590168 Z M24.5345745,26.5672615 C26.7287234,24.7720488 28.3244681,22.4781658 29.3218085,19.9848147 L27.4268617,19.3864105 C26.6289894,21.5805594 25.1329787,23.5752403 23.2380319,25.1709849 L24.5345745,26.5672615 L24.5345745,26.5672615 Z" id="形状"></path>
                    </g>
                </g>
            </g>
        </g>
    </g>
</svg>